<svg xmlns="http://www.w3.org/2000/svg" width="20" height="20.003" viewBox="0 0 20 20.003">
  <path id="Icon_metro-spinner4" data-name="Icon metro-spinner4" d="M12.571,1.928a10,10,0,0,0-10,9.765C2.689,6.969,6.281,3.178,10.7,3.178a8.03,8.03,0,0,1,6.431,3.4,8.959,8.959,0,0,1,1.694,5.349,1.875,1.875,0,0,0,3.75,0,10,10,0,0,0-10-10Zm0,20a10,10,0,0,0,10-9.765c-.116,4.724-3.708,8.515-8.122,8.515-4.487,0-8.125-3.918-8.125-8.75a1.875,1.875,0,0,0-3.75,0A10,10,0,0,0,12.571,21.928Z" transform="translate(21.928 -2.571) rotate(90)" fill="#92a0bc"/>
  <ellipse id="Ellipse_9" data-name="Ellipse 9" cx="5" cy="10" rx="5" ry="10" transform="translate(5.5 0.003)" fill="#92a0bc"/>
</svg>


